<svg xmlns="http://www.w3.org/2000/svg" style="display: none;">
    <symbol id="themeToggleDark" fill="#111" viewBox="0 0 16 16">
        <path d="M6 .278a.768.768 0 0 1 .08.858 7.208 7.208 0 0 0-.878 3.46c0 4.021 3.278 7.277 7.318 7.277.527 0 1.04-.055 1.533-.16a.787.787 0 0 1 .81.316.733.733 0 0 1-.031.893A8.349 8.349 0 0 1 8.344 16C3.734 16 0 12.286 0 7.71 0 4.266 2.114 1.312 5.124.06A.752.752 0 0 1 6 .278z"></path>
    </symbol>
    <symbol id="themeToggleLight" fill="#999" viewBox="0 0 16 16">
        <path d="M12 8a4 4 0 1 1-8 0 4 4 0 0 1 8 0zM8 0a.5.5 0 0 1 .5.5v2a.5.5 0 0 1-1 0v-2A.5.5 0 0 1 8 0zm0 13a.5.5 0 0 1 .5.5v2a.5.5 0 0 1-1 0v-2A.5.5 0 0 1 8 13zm8-5a.5.5 0 0 1-.5.5h-2a.5.5 0 0 1 0-1h2a.5.5 0 0 1 .5.5zM3 8a.5.5 0 0 1-.5.5h-2a.5.5 0 0 1 0-1h2A.5.5 0 0 1 3 8zm10.657-5.657a.5.5 0 0 1 0 .707l-1.414 1.415a.5.5 0 1 1-.707-.708l1.414-1.414a.5.5 0 0 1 .707 0zm-9.193 9.193a.5.5 0 0 1 0 .707L3.05 13.657a.5.5 0 0 1-.707-.707l1.414-1.414a.5.5 0 0 1 .707 0zm9.193 2.121a.5.5 0 0 1-.707 0l-1.414-1.414a.5.5 0 0 1 .707-.707l1.414 1.414a.5.5 0 0 1 0 .707zM4.464 4.465a.5.5 0 0 1-.707 0L2.343 3.05a.5.5 0 1 1 .707-.707l1.414 1.414a.5.5 0 0 1 0 .708z"></path>
    </symbol>
    <symbol id="staff" fill="currentColor" viewBox="0 0 16 16">
        <path d="M3 14s-1 0-1-1 1-4 6-4 6 3 6 4-1 1-1 1H3Zm5-6a3 3 0 1 0 0-6 3 3 0 0 0 0 6Z" />
    </symbol>
    <symbol id="manager" fill="currentColor" viewBox="0 0 16 16">
        <path d="M11 5a3 3 0 1 1-6 0 3 3 0 0 1 6 0Zm-9 8c0 1 1 1 1 1h5v-1a1.9 1.9 0 0 1 .01-.2 4.49 4.49 0 0 1 1.534-3.693C9.077 9.038 8.564 9 8 9c-5 0-6 3-6 4Zm7 0a1 1 0 0 1 1-1v-1a2 2 0 1 1 4 0v1a1 1 0 0 1 1 1v2a1 1 0 0 1-1 1h-4a1 1 0 0 1-1-1v-2Zm3-3a1 1 0 0 0-1 1v1h2v-1a1 1 0 0 0-1-1Z" />
    </symbol>
    <symbol id="logout" fill="currentColor" viewBox="0 0 16 16">
        <path d="M7.5 1v7h1V1z" />
        <path d="M3 8.812a4.999 4.999 0 0 1 2.578-4.375l-.485-.874A6 6 0 1 0 11 3.616l-.501.865A5 5 0 1 1 3 8.812" />
    </symbol>
    <symbol id="shopBag" fill="currentColor" viewBox="0 0 16 16">
        <path d="M8 1a2 2 0 0 0-2 2v2H5V3a3 3 0 1 1 6 0v2h-1V3a2 2 0 0 0-2-2M5 5H3.36a1.5 1.5 0 0 0-1.483 1.277L.85 13.13A2.5 2.5 0 0 0 3.322 16h9.355a2.5 2.5 0 0 0 2.473-2.87l-1.028-6.853A1.5 1.5 0 0 0 12.64 5H11v1.5a.5.5 0 0 1-1 0V5H6v1.5a.5.5 0 0 1-1 0z" />
    </symbol>
    <symbol id="close" fill="currentColor" viewBox="0 0 16 16">
        <path d="M16 8A8 8 0 1 1 0 8a8 8 0 0 1 16 0M5.354 4.646a.5.5 0 1 0-.708.708L7.293 8l-2.647 2.646a.5.5 0 0 0 .708.708L8 8.707l2.646 2.647a.5.5 0 0 0 .708-.708L8.707 8l2.647-2.646a.5.5 0 0 0-.708-.708L8 7.293z" />
    </symbol>
    <symbol id="staffDelete" fill="currentColor" viewBox="0 0 16 16">
        <path fill-rule="evenodd" d="M1 14s-1 0-1-1 1-4 6-4 6 3 6 4-1 1-1 1zm5-6a3 3 0 1 0 0-6 3 3 0 0 0 0 6m6.146-2.854a.5.5 0 0 1 .708 0L14 6.293l1.146-1.147a.5.5 0 0 1 .708.708L14.707 7l1.147 1.146a.5.5 0 0 1-.708.708L14 7.707l-1.146 1.147a.5.5 0 0 1-.708-.708L13.293 7l-1.147-1.146a.5.5 0 0 1 0-.708z" />
    </symbol>
    <symbol id="staffReplace" fill="currentColor" viewBox="0 0 16 16">
        <path d="M11 5a3 3 0 1 1-6 0 3 3 0 0 1 6 0m-9 8c0 1 1 1 1 1h5.256A4.493 4.493 0 0 1 8 12.5a4.49 4.49 0 0 1 1.544-3.393C9.077 9.038 8.564 9 8 9c-5 0-6 3-6 4m9.886-3.54c.18-.613 1.048-.613 1.229 0l.043.148a.64.64 0 0 0 .921.382l.136-.074c.561-.306 1.175.308.87.869l-.075.136a.64.64 0 0 0 .382.92l.149.045c.612.18.612 1.048 0 1.229l-.15.043a.64.64 0 0 0-.38.921l.074.136c.305.561-.309 1.175-.87.87l-.136-.075a.64.64 0 0 0-.92.382l-.045.149c-.18.612-1.048.612-1.229 0l-.043-.15a.64.64 0 0 0-.921-.38l-.136.074c-.561.305-1.175-.309-.87-.87l.075-.136a.64.64 0 0 0-.382-.92l-.148-.045c-.613-.18-.613-1.048 0-1.229l.148-.043a.64.64 0 0 0 .382-.921l-.074-.136c-.306-.561.308-1.175.869-.87l.136.075a.64.64 0 0 0 .92-.382l.045-.148ZM14 12.5a1.5 1.5 0 1 0-3 0 1.5 1.5 0 0 0 3 0" />
    </symbol>
    <symbol id="staffAdd" fill="currentColor" viewBox="0 0 16 16">
        <path d="M1 14s-1 0-1-1 1-4 6-4 6 3 6 4-1 1-1 1zm5-6a3 3 0 1 0 0-6 3 3 0 0 0 0 6" />
        <path fill-rule="evenodd" d="M13.5 5a.5.5 0 0 1 .5.5V7h1.5a.5.5 0 0 1 0 1H14v1.5a.5.5 0 0 1-1 0V8h-1.5a.5.5 0 0 1 0-1H13V5.5a.5.5 0 0 1 .5-.5" />
    </symbol>
    <symbol id="product" fill="currentColor" viewBox="0 0 16 16">
        <path d="M8 1a2.5 2.5 0 0 1 2.5 2.5V4h-5v-.5A2.5 2.5 0 0 1 8 1m3.5 3v-.5a3.5 3.5 0 1 0-7 0V4H1v10a2 2 0 0 0 2 2h10a2 2 0 0 0 2-2V4z"/>
    </symbol>
    <symbol id="productAdd" fill="currentColor" viewBox="0 0 16 16">
        <path fill-rule="evenodd" d="M10.5 3.5a2.5 2.5 0 0 0-5 0V4h5zm1 0V4H15v10a2 2 0 0 1-2 2H3a2 2 0 0 1-2-2V4h3.5v-.5a3.5 3.5 0 1 1 7 0M8.5 8a.5.5 0 0 0-1 0v1.5H6a.5.5 0 0 0 0 1h1.5V12a.5.5 0 0 0 1 0v-1.5H10a.5.5 0 0 0 0-1H8.5z"/>
    </symbol>
    <symbol id="productDelete" fill="currentColor" viewBox="0 0 16 16">
        <path fill-rule="evenodd" d="M10.5 3.5a2.5 2.5 0 0 0-5 0V4h5zm1 0V4H15v10a2 2 0 0 1-2 2H3a2 2 0 0 1-2-2V4h3.5v-.5a3.5 3.5 0 1 1 7 0M6.854 8.146a.5.5 0 1 0-.708.708L7.293 10l-1.147 1.146a.5.5 0 0 0 .708.708L8 10.707l1.146 1.147a.5.5 0 0 0 .708-.708L8.707 10l1.147-1.146a.5.5 0 0 0-.708-.708L8 9.293z"/>
    </symbol>
    <symbol id="add" fill="currentColor" viewBox="0 0 16 16">
        <path d="M16 8A8 8 0 1 1 0 8a8 8 0 0 1 16 0M8.5 4.5a.5.5 0 0 0-1 0v3h-3a.5.5 0 0 0 0 1h3v3a.5.5 0 0 0 1 0v-3h3a.5.5 0 0 0 0-1h-3z"/>
    </symbol>
    <symbol id="saleAdd" fill="currentColor" viewBox="0 0 16 16">
        <path d="M.5 1a.5.5 0 0 0 0 1h1.11l.401 1.607 1.498 7.985A.5.5 0 0 0 4 12h1a2 2 0 1 0 0 4 2 2 0 0 0 0-4h7a2 2 0 1 0 0 4 2 2 0 0 0 0-4h1a.5.5 0 0 0 .491-.408l1.5-8A.5.5 0 0 0 14.5 3H2.89l-.405-1.621A.5.5 0 0 0 2 1zM6 14a1 1 0 1 1-2 0 1 1 0 0 1 2 0m7 0a1 1 0 1 1-2 0 1 1 0 0 1 2 0M9 5.5V7h1.5a.5.5 0 0 1 0 1H9v1.5a.5.5 0 0 1-1 0V8H6.5a.5.5 0 0 1 0-1H8V5.5a.5.5 0 0 1 1 0"/>
    </symbol>
    <symbol id="saleFinish" fill="currentColor" viewBox="0 0 16 16">
        <path d="M.5 1a.5.5 0 0 0 0 1h1.11l.401 1.607 1.498 7.985A.5.5 0 0 0 4 12h1a2 2 0 1 0 0 4 2 2 0 0 0 0-4h7a2 2 0 1 0 0 4 2 2 0 0 0 0-4h1a.5.5 0 0 0 .491-.408l1.5-8A.5.5 0 0 0 14.5 3H2.89l-.405-1.621A.5.5 0 0 0 2 1zM6 14a1 1 0 1 1-2 0 1 1 0 0 1 2 0m7 0a1 1 0 1 1-2 0 1 1 0 0 1 2 0m-1.646-7.646-3 3a.5.5 0 0 1-.708 0l-1.5-1.5a.5.5 0 1 1 .708-.708L8 8.293l2.646-2.647a.5.5 0 0 1 .708.708z"/>
    </symbol>
    <symbol id="saleCancel" fill="currentColor" viewBox="0 0 16 16">
        <path d="M.5 1a.5.5 0 0 0 0 1h1.11l.401 1.607 1.498 7.985A.5.5 0 0 0 4 12h1a2 2 0 1 0 0 4 2 2 0 0 0 0-4h7a2 2 0 1 0 0 4 2 2 0 0 0 0-4h1a.5.5 0 0 0 .491-.408l1.5-8A.5.5 0 0 0 14.5 3H2.89l-.405-1.621A.5.5 0 0 0 2 1zM6 14a1 1 0 1 1-2 0 1 1 0 0 1 2 0m7 0a1 1 0 1 1-2 0 1 1 0 0 1 2 0M7.354 5.646 8.5 6.793l1.146-1.147a.5.5 0 0 1 .708.708L9.207 7.5l1.147 1.146a.5.5 0 0 1-.708.708L8.5 8.207 7.354 9.354a.5.5 0 1 1-.708-.708L7.793 7.5 6.646 6.354a.5.5 0 1 1 .708-.708z"/>
    </symbol>
    <symbol id="sale" fill="currentColor" viewBox="0 0 16 16">
        <path d="M0 1.5A.5.5 0 0 1 .5 1H2a.5.5 0 0 1 .485.379L2.89 3H14.5a.5.5 0 0 1 .491.592l-1.5 8A.5.5 0 0 1 13 12H4a.5.5 0 0 1-.491-.408L2.01 3.607 1.61 2H.5a.5.5 0 0 1-.5-.5M5 12a2 2 0 1 0 0 4 2 2 0 0 0 0-4m7 0a2 2 0 1 0 0 4 2 2 0 0 0 0-4m-7 1a1 1 0 1 1 0 2 1 1 0 0 1 0-2m7 0a1 1 0 1 1 0 2 1 1 0 0 1 0-2"/>
    </symbol>
    <symbol id="statics" fill="currentColor" viewBox="0 0 16 16">
        <path d="M11 2a1 1 0 0 1 1-1h2a1 1 0 0 1 1 1v12h.5a.5.5 0 0 1 0 1H.5a.5.5 0 0 1 0-1H1v-3a1 1 0 0 1 1-1h2a1 1 0 0 1 1 1v3h1V7a1 1 0 0 1 1-1h2a1 1 0 0 1 1 1v7h1z"/>
    </symbol>
    <symbol id="registry" fill="currentColor" viewBox="0 0 16 16">
        <path fill-rule="evenodd" d="M6 1h6v7a.5.5 0 0 1-.757.429L9 7.083 6.757 8.43A.5.5 0 0 1 6 8z"/>
        <path d="M3 0h10a2 2 0 0 1 2 2v12a2 2 0 0 1-2 2H3a2 2 0 0 1-2-2v-1h1v1a1 1 0 0 0 1 1h10a1 1 0 0 0 1-1V2a1 1 0 0 0-1-1H3a1 1 0 0 0-1 1v1H1V2a2 2 0 0 1 2-2"/>
        <path d="M1 5v-.5a.5.5 0 0 1 1 0V5h.5a.5.5 0 0 1 0 1h-2a.5.5 0 0 1 0-1zm0 3v-.5a.5.5 0 0 1 1 0V8h.5a.5.5 0 0 1 0 1h-2a.5.5 0 0 1 0-1zm0 3v-.5a.5.5 0 0 1 1 0v.5h.5a.5.5 0 0 1 0 1h-2a.5.5 0 0 1 0-1z"/>
    </symbol>
    <symbol id="bill" fill="currentColor" viewBox="0 0 16 16">
        <path d="M1.92.506a.5.5 0 0 1 .434.14L3 1.293l.646-.647a.5.5 0 0 1 .708 0L5 1.293l.646-.647a.5.5 0 0 1 .708 0L7 1.293l.646-.647a.5.5 0 0 1 .708 0L9 1.293l.646-.647a.5.5 0 0 1 .708 0l.646.647.646-.647a.5.5 0 0 1 .708 0l.646.647.646-.647a.5.5 0 0 1 .801.13l.5 1A.5.5 0 0 1 15 2v12a.5.5 0 0 1-.053.224l-.5 1a.5.5 0 0 1-.8.13L13 14.707l-.646.647a.5.5 0 0 1-.708 0L11 14.707l-.646.647a.5.5 0 0 1-.708 0L9 14.707l-.646.647a.5.5 0 0 1-.708 0L7 14.707l-.646.647a.5.5 0 0 1-.708 0L5 14.707l-.646.647a.5.5 0 0 1-.708 0L3 14.707l-.646.647a.5.5 0 0 1-.801-.13l-.5-1A.5.5 0 0 1 1 14V2a.5.5 0 0 1 .053-.224l.5-1a.5.5 0 0 1 .367-.27m.217 1.338L2 2.118v11.764l.137.274.51-.51a.5.5 0 0 1 .707 0l.646.647.646-.646a.5.5 0 0 1 .708 0l.646.646.646-.646a.5.5 0 0 1 .708 0l.646.646.646-.646a.5.5 0 0 1 .708 0l.646.646.646-.646a.5.5 0 0 1 .708 0l.646.646.646-.646a.5.5 0 0 1 .708 0l.509.509.137-.274V2.118l-.137-.274-.51.51a.5.5 0 0 1-.707 0L12 1.707l-.646.647a.5.5 0 0 1-.708 0L10 1.707l-.646.647a.5.5 0 0 1-.708 0L8 1.707l-.646.647a.5.5 0 0 1-.708 0L6 1.707l-.646.647a.5.5 0 0 1-.708 0L4 1.707l-.646.647a.5.5 0 0 1-.708 0z"/>
        <path d="M3 4.5a.5.5 0 0 1 .5-.5h6a.5.5 0 1 1 0 1h-6a.5.5 0 0 1-.5-.5m0 2a.5.5 0 0 1 .5-.5h6a.5.5 0 1 1 0 1h-6a.5.5 0 0 1-.5-.5m0 2a.5.5 0 0 1 .5-.5h6a.5.5 0 1 1 0 1h-6a.5.5 0 0 1-.5-.5m0 2a.5.5 0 0 1 .5-.5h6a.5.5 0 0 1 0 1h-6a.5.5 0 0 1-.5-.5m8-6a.5.5 0 0 1 .5-.5h1a.5.5 0 0 1 0 1h-1a.5.5 0 0 1-.5-.5m0 2a.5.5 0 0 1 .5-.5h1a.5.5 0 0 1 0 1h-1a.5.5 0 0 1-.5-.5m0 2a.5.5 0 0 1 .5-.5h1a.5.5 0 0 1 0 1h-1a.5.5 0 0 1-.5-.5m0 2a.5.5 0 0 1 .5-.5h1a.5.5 0 0 1 0 1h-1a.5.5 0 0 1-.5-.5"/>
    </symbol>
    <symbol id="dropDown" fill="currentColor" viewBox="0 0 16 16">
        <path d="M7.247 11.14 2.451 5.658C1.885 5.013 2.345 4 3.204 4h9.592a1 1 0 0 1 .753 1.659l-4.796 5.48a1 1 0 0 1-1.506 0z"/>
    </symbol>
    <symbol id="direct" fill="currentColor" viewBox="0 0 16 16">
        <path fill-rule="evenodd" d="M8.636 3.5a.5.5 0 0 0-.5-.5H1.5A1.5 1.5 0 0 0 0 4.5v10A1.5 1.5 0 0 0 1.5 16h10a1.5 1.5 0 0 0 1.5-1.5V7.864a.5.5 0 0 0-1 0V14.5a.5.5 0 0 1-.5.5h-10a.5.5 0 0 1-.5-.5v-10a.5.5 0 0 1 .5-.5h6.636a.5.5 0 0 0 .5-.5"/>
        <path fill-rule="evenodd" d="M16 .5a.5.5 0 0 0-.5-.5h-5a.5.5 0 0 0 0 1h3.793L6.146 9.146a.5.5 0 1 0 .708.708L15 1.707V5.5a.5.5 0 0 0 1 0z"/>
    </symbol>
    <symbol id="edit" fill="currentColor" viewBox="0 0 16 16">
        <path d="M15.502 1.94a.5.5 0 0 1 0 .706L14.459 3.69l-2-2L13.502.646a.5.5 0 0 1 .707 0l1.293 1.293zm-1.75 2.456-2-2L4.939 9.21a.5.5 0 0 0-.121.196l-.805 2.414a.25.25 0 0 0 .316.316l2.414-.805a.5.5 0 0 0 .196-.12l6.813-6.814z"/>
        <path fill-rule="evenodd" d="M1 13.5A1.5 1.5 0 0 0 2.5 15h11a1.5 1.5 0 0 0 1.5-1.5v-6a.5.5 0 0 0-1 0v6a.5.5 0 0 1-.5.5h-11a.5.5 0 0 1-.5-.5v-11a.5.5 0 0 1 .5-.5H9a.5.5 0 0 0 0-1H2.5A1.5 1.5 0 0 0 1 2.5z"/>
    </symbol>
    <symbol id="home" fill="currentColor" viewBox="0 0 16 16">
        <path d="M8.707 1.5a1 1 0 0 0-1.414 0L.646 8.146a.5.5 0 0 0 .708.708L8 2.207l6.646 6.647a.5.5 0 0 0 .708-.708L13 5.793V2.5a.5.5 0 0 0-.5-.5h-1a.5.5 0 0 0-.5.5v1.293z"/>
        <path d="m8 3.293 6 6V13.5a1.5 1.5 0 0 1-1.5 1.5h-9A1.5 1.5 0 0 1 2 13.5V9.293l6-6Z"/>
    </symbol>
    <symbol id="back" fill="currentColor" viewBox="0 0 16 16"> 
         <path d="M8 0a8 8 0 1 0 0 16A8 8 0 0 0 8 0m3.5 7.5a.5.5 0 0 1 0 1H5.707l2.147 2.146a.5.5 0 0 1-.708.708l-3-3a.5.5 0 0 1 0-.708l3-3a.5.5 0 1 1 .708.708L5.707 7.5z"/>
    </symbol>
</svg>  